<mxfile host="app.diagrams.net" agent="Mozilla/5.0 (Macintosh; Intel Mac OS X 10_15_7) AppleWebKit/537.36 (KHTML, like Gecko) Chrome/136.0.0.0 Safari/537.36" version="27.1.3">
  <diagram id="C5RBs43oDa-KdzZeNtuy" name="Page-1">
    <mxGraphModel dx="-83" dy="974" grid="1" gridSize="10" guides="1" tooltips="1" connect="1" arrows="1" fold="1" page="1" pageScale="1" pageWidth="827" pageHeight="1169" math="0" shadow="0">
      <root>
        <mxCell id="WIyWlLk6GJQsqaUBKTNV-0" />
        <mxCell id="WIyWlLk6GJQsqaUBKTNV-1" parent="WIyWlLk6GJQsqaUBKTNV-0" />
        <mxCell id="lqmqEfBhIyxysH6olWQB-0" value="Gerenciador" style="swimlane;fontStyle=1;align=center;verticalAlign=top;childLayout=stackLayout;horizontal=1;startSize=26;horizontalStack=0;resizeParent=1;resizeParentMax=0;resizeLast=0;collapsible=1;marginBottom=0;whiteSpace=wrap;html=1;" vertex="1" parent="WIyWlLk6GJQsqaUBKTNV-1">
          <mxGeometry x="1199.5" y="170" width="240" height="138" as="geometry" />
        </mxCell>
        <mxCell id="lqmqEfBhIyxysH6olWQB-4" value="- TIPO_PROCESSO: enum" style="text;strokeColor=none;fillColor=none;align=left;verticalAlign=top;spacingLeft=4;spacingRight=4;overflow=hidden;rotatable=0;points=[[0,0.5],[1,0.5]];portConstraint=eastwest;whiteSpace=wrap;html=1;" vertex="1" parent="lqmqEfBhIyxysH6olWQB-0">
          <mxGeometry y="26" width="240" height="26" as="geometry" />
        </mxCell>
        <mxCell id="lqmqEfBhIyxysH6olWQB-2" value="" style="line;strokeWidth=1;fillColor=none;align=left;verticalAlign=middle;spacingTop=-1;spacingLeft=3;spacingRight=3;rotatable=0;labelPosition=right;points=[];portConstraint=eastwest;strokeColor=inherit;" vertex="1" parent="lqmqEfBhIyxysH6olWQB-0">
          <mxGeometry y="52" width="240" height="8" as="geometry" />
        </mxCell>
        <mxCell id="lqmqEfBhIyxysH6olWQB-3" value="+ run(): void" style="text;strokeColor=none;fillColor=none;align=left;verticalAlign=top;spacingLeft=4;spacingRight=4;overflow=hidden;rotatable=0;points=[[0,0.5],[1,0.5]];portConstraint=eastwest;whiteSpace=wrap;html=1;" vertex="1" parent="lqmqEfBhIyxysH6olWQB-0">
          <mxGeometry y="60" width="240" height="26" as="geometry" />
        </mxCell>
        <mxCell id="lqmqEfBhIyxysH6olWQB-5" value="+ criarProcesso(TIPO_PROCESSO): bool" style="text;strokeColor=none;fillColor=none;align=left;verticalAlign=top;spacingLeft=4;spacingRight=4;overflow=hidden;rotatable=0;points=[[0,0.5],[1,0.5]];portConstraint=eastwest;whiteSpace=wrap;html=1;" vertex="1" parent="lqmqEfBhIyxysH6olWQB-0">
          <mxGeometry y="86" width="240" height="26" as="geometry" />
        </mxCell>
        <mxCell id="lqmqEfBhIyxysH6olWQB-6" value="+ maiorPid(): int" style="text;strokeColor=none;fillColor=none;align=left;verticalAlign=top;spacingLeft=4;spacingRight=4;overflow=hidden;rotatable=0;points=[[0,0.5],[1,0.5]];portConstraint=eastwest;whiteSpace=wrap;html=1;" vertex="1" parent="lqmqEfBhIyxysH6olWQB-0">
          <mxGeometry y="112" width="240" height="26" as="geometry" />
        </mxCell>
        <mxCell id="lqmqEfBhIyxysH6olWQB-11" value="Processo" style="swimlane;fontStyle=1;align=center;verticalAlign=top;childLayout=stackLayout;horizontal=1;startSize=26;horizontalStack=0;resizeParent=1;resizeParentMax=0;resizeLast=0;collapsible=1;marginBottom=0;whiteSpace=wrap;html=1;" vertex="1" parent="WIyWlLk6GJQsqaUBKTNV-1">
          <mxGeometry x="1519.5" y="40" width="359" height="372" as="geometry" />
        </mxCell>
        <mxCell id="lqmqEfBhIyxysH6olWQB-15" value="- operando1: int" style="text;strokeColor=none;fillColor=none;align=left;verticalAlign=top;spacingLeft=4;spacingRight=4;overflow=hidden;rotatable=0;points=[[0,0.5],[1,0.5]];portConstraint=eastwest;whiteSpace=wrap;html=1;" vertex="1" parent="lqmqEfBhIyxysH6olWQB-11">
          <mxGeometry y="26" width="359" height="26" as="geometry" />
        </mxCell>
        <mxCell id="lqmqEfBhIyxysH6olWQB-12" value="- operando2: int" style="text;strokeColor=none;fillColor=none;align=left;verticalAlign=top;spacingLeft=4;spacingRight=4;overflow=hidden;rotatable=0;points=[[0,0.5],[1,0.5]];portConstraint=eastwest;whiteSpace=wrap;html=1;" vertex="1" parent="lqmqEfBhIyxysH6olWQB-11">
          <mxGeometry y="52" width="359" height="26" as="geometry" />
        </mxCell>
        <mxCell id="lqmqEfBhIyxysH6olWQB-17" value="- OPERADORES: enum&lt;span style=&quot;color: rgba(0, 0, 0, 0); font-family: monospace; font-size: 0px; text-wrap-mode: nowrap;&quot;&gt;%3CmxGraphModel%3E%3Croot%3E%3CmxCell%20id%3D%220%22%2F%3E%3CmxCell%20id%3D%221%22%20parent%3D%220%22%2F%3E%3CmxCell%20id%3D%222%22%20value%3D%22%2B%20operando2%3A%20int%22%20style%3D%22text%3BstrokeColor%3Dnone%3BfillColor%3Dnone%3Balign%3Dleft%3BverticalAlign%3Dtop%3BspacingLeft%3D4%3BspacingRight%3D4%3Boverflow%3Dhidden%3Brotatable%3D0%3Bpoints%3D%5B%5B0%2C0.5%5D%2C%5B1%2C0.5%5D%5D%3BportConstraint%3Deastwest%3BwhiteSpace%3Dwrap%3Bhtml%3D1%3B%22%20vertex%3D%221%22%20parent%3D%221%22%3E%3CmxGeometry%20x%3D%221241%22%20y%3D%2292%22%20width%3D%22280%22%20height%3D%2226%22%20as%3D%22geometry%22%2F%3E%3C%2FmxCell%3E%3C%2Froot%3E%3C%2FmxGraphModel%3E&lt;/span&gt;" style="text;strokeColor=none;fillColor=none;align=left;verticalAlign=top;spacingLeft=4;spacingRight=4;overflow=hidden;rotatable=0;points=[[0,0.5],[1,0.5]];portConstraint=eastwest;whiteSpace=wrap;html=1;" vertex="1" parent="lqmqEfBhIyxysH6olWQB-11">
          <mxGeometry y="78" width="359" height="26" as="geometry" />
        </mxCell>
        <mxCell id="lqmqEfBhIyxysH6olWQB-16" value="- operador: OPERADORES&lt;span style=&quot;color: rgba(0, 0, 0, 0); font-family: monospace; font-size: 0px; text-wrap-mode: nowrap;&quot;&gt;%3CmxGraphModel%3E%3Croot%3E%3CmxCell%20id%3D%220%22%2F%3E%3CmxCell%20id%3D%221%22%20parent%3D%220%22%2F%3E%3CmxCell%20id%3D%222%22%20value%3D%22%2B%20operando2%3A%20int%22%20style%3D%22text%3BstrokeColor%3Dnone%3BfillColor%3Dnone%3Balign%3Dleft%3BverticalAlign%3Dtop%3BspacingLeft%3D4%3BspacingRight%3D4%3Boverflow%3Dhidden%3Brotatable%3D0%3Bpoints%3D%5B%5B0%2C0.5%5D%2C%5B1%2C0.5%5D%5D%3BportConstraint%3Deastwest%3BwhiteSpace%3Dwrap%3Bhtml%3D1%3B%22%20vertex%3D%221%22%20parent%3D%221%22%3E%3CmxGeometry%20x%3D%221241%22%20y%3D%2292%22%20width%3D%22280%22%20height%3D%2226%22%20as%3D%22geometry%22%2F%3E%3C%2FmxCell%3E%3C%2Froot%3E%3C%2FmxGraphModel%3E&lt;/span&gt;" style="text;strokeColor=none;fillColor=none;align=left;verticalAlign=top;spacingLeft=4;spacingRight=4;overflow=hidden;rotatable=0;points=[[0,0.5],[1,0.5]];portConstraint=eastwest;whiteSpace=wrap;html=1;" vertex="1" parent="lqmqEfBhIyxysH6olWQB-11">
          <mxGeometry y="104" width="359" height="26" as="geometry" />
        </mxCell>
        <mxCell id="lqmqEfBhIyxysH6olWQB-18" value="- pid: int" style="text;strokeColor=none;fillColor=none;align=left;verticalAlign=top;spacingLeft=4;spacingRight=4;overflow=hidden;rotatable=0;points=[[0,0.5],[1,0.5]];portConstraint=eastwest;whiteSpace=wrap;html=1;" vertex="1" parent="lqmqEfBhIyxysH6olWQB-11">
          <mxGeometry y="130" width="359" height="26" as="geometry" />
        </mxCell>
        <mxCell id="lqmqEfBhIyxysH6olWQB-13" value="" style="line;strokeWidth=1;fillColor=none;align=left;verticalAlign=middle;spacingTop=-1;spacingLeft=3;spacingRight=3;rotatable=0;labelPosition=right;points=[];portConstraint=eastwest;strokeColor=inherit;" vertex="1" parent="lqmqEfBhIyxysH6olWQB-11">
          <mxGeometry y="156" width="359" height="8" as="geometry" />
        </mxCell>
        <mxCell id="lqmqEfBhIyxysH6olWQB-14" value="+ getPid(): int" style="text;strokeColor=none;fillColor=none;align=left;verticalAlign=top;spacingLeft=4;spacingRight=4;overflow=hidden;rotatable=0;points=[[0,0.5],[1,0.5]];portConstraint=eastwest;whiteSpace=wrap;html=1;" vertex="1" parent="lqmqEfBhIyxysH6olWQB-11">
          <mxGeometry y="164" width="359" height="26" as="geometry" />
        </mxCell>
        <mxCell id="lqmqEfBhIyxysH6olWQB-19" value="+ getOperando1(): int" style="text;strokeColor=none;fillColor=none;align=left;verticalAlign=top;spacingLeft=4;spacingRight=4;overflow=hidden;rotatable=0;points=[[0,0.5],[1,0.5]];portConstraint=eastwest;whiteSpace=wrap;html=1;" vertex="1" parent="lqmqEfBhIyxysH6olWQB-11">
          <mxGeometry y="190" width="359" height="26" as="geometry" />
        </mxCell>
        <mxCell id="lqmqEfBhIyxysH6olWQB-21" value="+ getOperando2(): int" style="text;strokeColor=none;fillColor=none;align=left;verticalAlign=top;spacingLeft=4;spacingRight=4;overflow=hidden;rotatable=0;points=[[0,0.5],[1,0.5]];portConstraint=eastwest;whiteSpace=wrap;html=1;" vertex="1" parent="lqmqEfBhIyxysH6olWQB-11">
          <mxGeometry y="216" width="359" height="26" as="geometry" />
        </mxCell>
        <mxCell id="lqmqEfBhIyxysH6olWQB-20" value="+ getOperador(): char" style="text;strokeColor=none;fillColor=none;align=left;verticalAlign=top;spacingLeft=4;spacingRight=4;overflow=hidden;rotatable=0;points=[[0,0.5],[1,0.5]];portConstraint=eastwest;whiteSpace=wrap;html=1;" vertex="1" parent="lqmqEfBhIyxysH6olWQB-11">
          <mxGeometry y="242" width="359" height="26" as="geometry" />
        </mxCell>
        <mxCell id="lqmqEfBhIyxysH6olWQB-22" value="+ execute(): void {virtual}" style="text;strokeColor=none;fillColor=none;align=left;verticalAlign=top;spacingLeft=4;spacingRight=4;overflow=hidden;rotatable=0;points=[[0,0.5],[1,0.5]];portConstraint=eastwest;whiteSpace=wrap;html=1;" vertex="1" parent="lqmqEfBhIyxysH6olWQB-11">
          <mxGeometry y="268" width="359" height="26" as="geometry" />
        </mxCell>
        <mxCell id="lqmqEfBhIyxysH6olWQB-23" value="+ imprime(): void {virtual}" style="text;strokeColor=none;fillColor=none;align=left;verticalAlign=top;spacingLeft=4;spacingRight=4;overflow=hidden;rotatable=0;points=[[0,0.5],[1,0.5]];portConstraint=eastwest;whiteSpace=wrap;html=1;" vertex="1" parent="lqmqEfBhIyxysH6olWQB-11">
          <mxGeometry y="294" width="359" height="26" as="geometry" />
        </mxCell>
        <mxCell id="lqmqEfBhIyxysH6olWQB-24" value="+ parseEquacao(string): bool" style="text;strokeColor=none;fillColor=none;align=left;verticalAlign=top;spacingLeft=4;spacingRight=4;overflow=hidden;rotatable=0;points=[[0,0.5],[1,0.5]];portConstraint=eastwest;whiteSpace=wrap;html=1;" vertex="1" parent="lqmqEfBhIyxysH6olWQB-11">
          <mxGeometry y="320" width="359" height="26" as="geometry" />
        </mxCell>
        <mxCell id="lqmqEfBhIyxysH6olWQB-25" value="+ operator&amp;gt;(const Processo&amp;amp;, const Processo&amp;amp;): bool {friend}" style="text;strokeColor=none;fillColor=none;align=left;verticalAlign=top;spacingLeft=4;spacingRight=4;overflow=hidden;rotatable=0;points=[[0,0.5],[1,0.5]];portConstraint=eastwest;whiteSpace=wrap;html=1;" vertex="1" parent="lqmqEfBhIyxysH6olWQB-11">
          <mxGeometry y="346" width="359" height="26" as="geometry" />
        </mxCell>
        <mxCell id="lqmqEfBhIyxysH6olWQB-26" value="ComputingProcess" style="swimlane;fontStyle=1;align=center;verticalAlign=top;childLayout=stackLayout;horizontal=1;startSize=26;horizontalStack=0;resizeParent=1;resizeParentMax=0;resizeLast=0;collapsible=1;marginBottom=0;whiteSpace=wrap;html=1;" vertex="1" parent="WIyWlLk6GJQsqaUBKTNV-1">
          <mxGeometry x="940" y="560" width="320" height="112" as="geometry" />
        </mxCell>
        <mxCell id="lqmqEfBhIyxysH6olWQB-28" value="" style="line;strokeWidth=1;fillColor=none;align=left;verticalAlign=middle;spacingTop=-1;spacingLeft=3;spacingRight=3;rotatable=0;labelPosition=right;points=[];portConstraint=eastwest;strokeColor=inherit;" vertex="1" parent="lqmqEfBhIyxysH6olWQB-26">
          <mxGeometry y="26" width="320" height="8" as="geometry" />
        </mxCell>
        <mxCell id="lqmqEfBhIyxysH6olWQB-44" value="+ ComputingProcess(equacao: string, pid: int)" style="text;strokeColor=none;fillColor=none;align=left;verticalAlign=top;spacingLeft=4;spacingRight=4;overflow=hidden;rotatable=0;points=[[0,0.5],[1,0.5]];portConstraint=eastwest;whiteSpace=wrap;html=1;" vertex="1" parent="lqmqEfBhIyxysH6olWQB-26">
          <mxGeometry y="34" width="320" height="26" as="geometry" />
        </mxCell>
        <mxCell id="lqmqEfBhIyxysH6olWQB-29" value="+ execute(): void" style="text;strokeColor=none;fillColor=none;align=left;verticalAlign=top;spacingLeft=4;spacingRight=4;overflow=hidden;rotatable=0;points=[[0,0.5],[1,0.5]];portConstraint=eastwest;whiteSpace=wrap;html=1;" vertex="1" parent="lqmqEfBhIyxysH6olWQB-26">
          <mxGeometry y="60" width="320" height="26" as="geometry" />
        </mxCell>
        <mxCell id="lqmqEfBhIyxysH6olWQB-30" value="+ imprime(): void" style="text;strokeColor=none;fillColor=none;align=left;verticalAlign=top;spacingLeft=4;spacingRight=4;overflow=hidden;rotatable=0;points=[[0,0.5],[1,0.5]];portConstraint=eastwest;whiteSpace=wrap;html=1;" vertex="1" parent="lqmqEfBhIyxysH6olWQB-26">
          <mxGeometry y="86" width="320" height="26" as="geometry" />
        </mxCell>
        <mxCell id="lqmqEfBhIyxysH6olWQB-31" value="PrintingProcess" style="swimlane;fontStyle=1;align=center;verticalAlign=top;childLayout=stackLayout;horizontal=1;startSize=26;horizontalStack=0;resizeParent=1;resizeParentMax=0;resizeLast=0;collapsible=1;marginBottom=0;whiteSpace=wrap;html=1;" vertex="1" parent="WIyWlLk6GJQsqaUBKTNV-1">
          <mxGeometry x="1301" y="560" width="320" height="112" as="geometry" />
        </mxCell>
        <mxCell id="lqmqEfBhIyxysH6olWQB-32" value="" style="line;strokeWidth=1;fillColor=none;align=left;verticalAlign=middle;spacingTop=-1;spacingLeft=3;spacingRight=3;rotatable=0;labelPosition=right;points=[];portConstraint=eastwest;strokeColor=inherit;" vertex="1" parent="lqmqEfBhIyxysH6olWQB-31">
          <mxGeometry y="26" width="320" height="8" as="geometry" />
        </mxCell>
        <mxCell id="lqmqEfBhIyxysH6olWQB-45" value="+ PrintingProcess(&amp;amp;fila: fila&amp;lt;Processo*&amp;gt;, pid: int)" style="text;strokeColor=none;fillColor=none;align=left;verticalAlign=top;spacingLeft=4;spacingRight=4;overflow=hidden;rotatable=0;points=[[0,0.5],[1,0.5]];portConstraint=eastwest;whiteSpace=wrap;html=1;" vertex="1" parent="lqmqEfBhIyxysH6olWQB-31">
          <mxGeometry y="34" width="320" height="26" as="geometry" />
        </mxCell>
        <mxCell id="lqmqEfBhIyxysH6olWQB-33" value="+ execute(): void" style="text;strokeColor=none;fillColor=none;align=left;verticalAlign=top;spacingLeft=4;spacingRight=4;overflow=hidden;rotatable=0;points=[[0,0.5],[1,0.5]];portConstraint=eastwest;whiteSpace=wrap;html=1;" vertex="1" parent="lqmqEfBhIyxysH6olWQB-31">
          <mxGeometry y="60" width="320" height="26" as="geometry" />
        </mxCell>
        <mxCell id="lqmqEfBhIyxysH6olWQB-34" value="+ imprime(): void" style="text;strokeColor=none;fillColor=none;align=left;verticalAlign=top;spacingLeft=4;spacingRight=4;overflow=hidden;rotatable=0;points=[[0,0.5],[1,0.5]];portConstraint=eastwest;whiteSpace=wrap;html=1;" vertex="1" parent="lqmqEfBhIyxysH6olWQB-31">
          <mxGeometry y="86" width="320" height="26" as="geometry" />
        </mxCell>
        <mxCell id="lqmqEfBhIyxysH6olWQB-50" value="" style="endArrow=none;html=1;edgeStyle=orthogonalEdgeStyle;rounded=0;exitX=1;exitY=0.5;exitDx=0;exitDy=0;entryX=0;entryY=0.5;entryDx=0;entryDy=0;" edge="1" parent="WIyWlLk6GJQsqaUBKTNV-1" source="lqmqEfBhIyxysH6olWQB-3" target="lqmqEfBhIyxysH6olWQB-19">
          <mxGeometry relative="1" as="geometry">
            <mxPoint x="1259.5" y="340" as="sourcePoint" />
            <mxPoint x="1419.5" y="340" as="targetPoint" />
          </mxGeometry>
        </mxCell>
        <mxCell id="lqmqEfBhIyxysH6olWQB-51" value="0" style="edgeLabel;resizable=0;html=1;align=left;verticalAlign=bottom;" connectable="0" vertex="1" parent="lqmqEfBhIyxysH6olWQB-50">
          <mxGeometry x="-1" relative="1" as="geometry" />
        </mxCell>
        <mxCell id="lqmqEfBhIyxysH6olWQB-52" value="0..*" style="edgeLabel;resizable=0;html=1;align=right;verticalAlign=bottom;" connectable="0" vertex="1" parent="lqmqEfBhIyxysH6olWQB-50">
          <mxGeometry x="1" relative="1" as="geometry" />
        </mxCell>
        <mxCell id="lqmqEfBhIyxysH6olWQB-53" value="possui" style="edgeLabel;html=1;align=center;verticalAlign=middle;resizable=0;points=[];" vertex="1" connectable="0" parent="lqmqEfBhIyxysH6olWQB-50">
          <mxGeometry x="-0.2213" y="1" relative="1" as="geometry">
            <mxPoint x="9" y="-12" as="offset" />
          </mxGeometry>
        </mxCell>
        <mxCell id="lqmqEfBhIyxysH6olWQB-54" value="WritingProcess" style="swimlane;fontStyle=1;align=center;verticalAlign=top;childLayout=stackLayout;horizontal=1;startSize=26;horizontalStack=0;resizeParent=1;resizeParentMax=0;resizeLast=0;collapsible=1;marginBottom=0;whiteSpace=wrap;html=1;" vertex="1" parent="WIyWlLk6GJQsqaUBKTNV-1">
          <mxGeometry x="1660" y="560" width="320" height="216" as="geometry" />
        </mxCell>
        <mxCell id="lqmqEfBhIyxysH6olWQB-59" value="- expressao: string" style="text;strokeColor=none;fillColor=none;align=left;verticalAlign=top;spacingLeft=4;spacingRight=4;overflow=hidden;rotatable=0;points=[[0,0.5],[1,0.5]];portConstraint=eastwest;whiteSpace=wrap;html=1;" vertex="1" parent="lqmqEfBhIyxysH6olWQB-54">
          <mxGeometry y="26" width="320" height="26" as="geometry" />
        </mxCell>
        <mxCell id="lqmqEfBhIyxysH6olWQB-55" value="" style="line;strokeWidth=1;fillColor=none;align=left;verticalAlign=middle;spacingTop=-1;spacingLeft=3;spacingRight=3;rotatable=0;labelPosition=right;points=[];portConstraint=eastwest;strokeColor=inherit;" vertex="1" parent="lqmqEfBhIyxysH6olWQB-54">
          <mxGeometry y="52" width="320" height="8" as="geometry" />
        </mxCell>
        <mxCell id="lqmqEfBhIyxysH6olWQB-56" value="+ ReadingProcess(expressao: string, pid: int)" style="text;strokeColor=none;fillColor=none;align=left;verticalAlign=top;spacingLeft=4;spacingRight=4;overflow=hidden;rotatable=0;points=[[0,0.5],[1,0.5]];portConstraint=eastwest;whiteSpace=wrap;html=1;" vertex="1" parent="lqmqEfBhIyxysH6olWQB-54">
          <mxGeometry y="60" width="320" height="26" as="geometry" />
        </mxCell>
        <mxCell id="lqmqEfBhIyxysH6olWQB-57" value="+ execute(): void" style="text;strokeColor=none;fillColor=none;align=left;verticalAlign=top;spacingLeft=4;spacingRight=4;overflow=hidden;rotatable=0;points=[[0,0.5],[1,0.5]];portConstraint=eastwest;whiteSpace=wrap;html=1;" vertex="1" parent="lqmqEfBhIyxysH6olWQB-54">
          <mxGeometry y="86" width="320" height="26" as="geometry" />
        </mxCell>
        <mxCell id="lqmqEfBhIyxysH6olWQB-58" value="+ imprime(): void" style="text;strokeColor=none;fillColor=none;align=left;verticalAlign=top;spacingLeft=4;spacingRight=4;overflow=hidden;rotatable=0;points=[[0,0.5],[1,0.5]];portConstraint=eastwest;whiteSpace=wrap;html=1;" vertex="1" parent="lqmqEfBhIyxysH6olWQB-54">
          <mxGeometry y="112" width="320" height="26" as="geometry" />
        </mxCell>
        <mxCell id="lqmqEfBhIyxysH6olWQB-60" value="+ writeToFile(string): bool" style="text;strokeColor=none;fillColor=none;align=left;verticalAlign=top;spacingLeft=4;spacingRight=4;overflow=hidden;rotatable=0;points=[[0,0.5],[1,0.5]];portConstraint=eastwest;whiteSpace=wrap;html=1;" vertex="1" parent="lqmqEfBhIyxysH6olWQB-54">
          <mxGeometry y="138" width="320" height="26" as="geometry" />
        </mxCell>
        <mxCell id="lqmqEfBhIyxysH6olWQB-61" value="+ setExpressao(string): void" style="text;strokeColor=none;fillColor=none;align=left;verticalAlign=top;spacingLeft=4;spacingRight=4;overflow=hidden;rotatable=0;points=[[0,0.5],[1,0.5]];portConstraint=eastwest;whiteSpace=wrap;html=1;" vertex="1" parent="lqmqEfBhIyxysH6olWQB-54">
          <mxGeometry y="164" width="320" height="26" as="geometry" />
        </mxCell>
        <mxCell id="lqmqEfBhIyxysH6olWQB-62" value="+ getExpressao(): string" style="text;strokeColor=none;fillColor=none;align=left;verticalAlign=top;spacingLeft=4;spacingRight=4;overflow=hidden;rotatable=0;points=[[0,0.5],[1,0.5]];portConstraint=eastwest;whiteSpace=wrap;html=1;" vertex="1" parent="lqmqEfBhIyxysH6olWQB-54">
          <mxGeometry y="190" width="320" height="26" as="geometry" />
        </mxCell>
        <mxCell id="lqmqEfBhIyxysH6olWQB-63" value="ReadingProcess" style="swimlane;fontStyle=1;align=center;verticalAlign=top;childLayout=stackLayout;horizontal=1;startSize=26;horizontalStack=0;resizeParent=1;resizeParentMax=0;resizeLast=0;collapsible=1;marginBottom=0;whiteSpace=wrap;html=1;" vertex="1" parent="WIyWlLk6GJQsqaUBKTNV-1">
          <mxGeometry x="2020" y="560" width="320" height="112" as="geometry" />
        </mxCell>
        <mxCell id="lqmqEfBhIyxysH6olWQB-64" value="" style="line;strokeWidth=1;fillColor=none;align=left;verticalAlign=middle;spacingTop=-1;spacingLeft=3;spacingRight=3;rotatable=0;labelPosition=right;points=[];portConstraint=eastwest;strokeColor=inherit;" vertex="1" parent="lqmqEfBhIyxysH6olWQB-63">
          <mxGeometry y="26" width="320" height="8" as="geometry" />
        </mxCell>
        <mxCell id="lqmqEfBhIyxysH6olWQB-65" value="+ ReadingProcess(&amp;amp;fila: fila&amp;lt;Processo*&amp;gt;, pid: int)" style="text;strokeColor=none;fillColor=none;align=left;verticalAlign=top;spacingLeft=4;spacingRight=4;overflow=hidden;rotatable=0;points=[[0,0.5],[1,0.5]];portConstraint=eastwest;whiteSpace=wrap;html=1;" vertex="1" parent="lqmqEfBhIyxysH6olWQB-63">
          <mxGeometry y="34" width="320" height="26" as="geometry" />
        </mxCell>
        <mxCell id="lqmqEfBhIyxysH6olWQB-66" value="+ execute(): void" style="text;strokeColor=none;fillColor=none;align=left;verticalAlign=top;spacingLeft=4;spacingRight=4;overflow=hidden;rotatable=0;points=[[0,0.5],[1,0.5]];portConstraint=eastwest;whiteSpace=wrap;html=1;" vertex="1" parent="lqmqEfBhIyxysH6olWQB-63">
          <mxGeometry y="60" width="320" height="26" as="geometry" />
        </mxCell>
        <mxCell id="lqmqEfBhIyxysH6olWQB-67" value="+ imprime(): void" style="text;strokeColor=none;fillColor=none;align=left;verticalAlign=top;spacingLeft=4;spacingRight=4;overflow=hidden;rotatable=0;points=[[0,0.5],[1,0.5]];portConstraint=eastwest;whiteSpace=wrap;html=1;" vertex="1" parent="lqmqEfBhIyxysH6olWQB-63">
          <mxGeometry y="86" width="320" height="26" as="geometry" />
        </mxCell>
        <mxCell id="lqmqEfBhIyxysH6olWQB-69" value="" style="endArrow=block;endSize=16;endFill=0;html=1;rounded=0;exitX=0.5;exitY=0;exitDx=0;exitDy=0;" edge="1" parent="WIyWlLk6GJQsqaUBKTNV-1" source="lqmqEfBhIyxysH6olWQB-26" target="lqmqEfBhIyxysH6olWQB-25">
          <mxGeometry x="-0.0268" y="-33" width="160" relative="1" as="geometry">
            <mxPoint x="1519.5" y="650" as="sourcePoint" />
            <mxPoint x="1679.5" y="420" as="targetPoint" />
            <Array as="points">
              <mxPoint x="1099.5" y="480" />
              <mxPoint x="1699.5" y="480" />
            </Array>
            <mxPoint as="offset" />
          </mxGeometry>
        </mxCell>
        <mxCell id="lqmqEfBhIyxysH6olWQB-72" value="" style="endArrow=block;endSize=16;endFill=0;html=1;rounded=0;exitX=0.5;exitY=0;exitDx=0;exitDy=0;" edge="1" parent="WIyWlLk6GJQsqaUBKTNV-1" source="lqmqEfBhIyxysH6olWQB-31" target="lqmqEfBhIyxysH6olWQB-25">
          <mxGeometry x="-0.0268" y="-33" width="160" relative="1" as="geometry">
            <mxPoint x="1180.5" y="628" as="sourcePoint" />
            <mxPoint x="1699.5" y="420" as="targetPoint" />
            <Array as="points">
              <mxPoint x="1459.5" y="480" />
              <mxPoint x="1699.5" y="480" />
            </Array>
            <mxPoint as="offset" />
          </mxGeometry>
        </mxCell>
        <mxCell id="lqmqEfBhIyxysH6olWQB-73" value="" style="endArrow=block;endSize=16;endFill=0;html=1;rounded=0;exitX=0.5;exitY=0;exitDx=0;exitDy=0;" edge="1" parent="WIyWlLk6GJQsqaUBKTNV-1" source="lqmqEfBhIyxysH6olWQB-54" target="lqmqEfBhIyxysH6olWQB-25">
          <mxGeometry x="-0.0268" y="-33" width="160" relative="1" as="geometry">
            <mxPoint x="1661" y="608" as="sourcePoint" />
            <mxPoint x="1649.5" y="420" as="targetPoint" />
            <Array as="points">
              <mxPoint x="1820.5" y="480" />
              <mxPoint x="1699.5" y="480" />
            </Array>
            <mxPoint as="offset" />
          </mxGeometry>
        </mxCell>
        <mxCell id="lqmqEfBhIyxysH6olWQB-74" value="" style="endArrow=block;endSize=16;endFill=0;html=1;rounded=0;exitX=0.5;exitY=0;exitDx=0;exitDy=0;" edge="1" parent="WIyWlLk6GJQsqaUBKTNV-1" source="lqmqEfBhIyxysH6olWQB-63" target="lqmqEfBhIyxysH6olWQB-25">
          <mxGeometry x="-0.0268" y="-33" width="160" relative="1" as="geometry">
            <mxPoint x="1910.5" y="456" as="sourcePoint" />
            <mxPoint x="1709.5" y="420" as="targetPoint" />
            <Array as="points">
              <mxPoint x="2180.5" y="480" />
              <mxPoint x="1699.5" y="480" />
            </Array>
            <mxPoint as="offset" />
          </mxGeometry>
        </mxCell>
        <mxCell id="lqmqEfBhIyxysH6olWQB-75" value="" style="endArrow=none;html=1;edgeStyle=orthogonalEdgeStyle;rounded=0;exitX=1;exitY=0.5;exitDx=0;exitDy=0;entryX=1;entryY=0.5;entryDx=0;entryDy=0;" edge="1" parent="WIyWlLk6GJQsqaUBKTNV-1" source="lqmqEfBhIyxysH6olWQB-19" target="lqmqEfBhIyxysH6olWQB-45">
          <mxGeometry relative="1" as="geometry">
            <mxPoint x="2140" y="280" as="sourcePoint" />
            <mxPoint x="2220" y="280" as="targetPoint" />
            <Array as="points">
              <mxPoint x="1999" y="243" />
              <mxPoint x="1999" y="820" />
              <mxPoint x="1640" y="820" />
              <mxPoint x="1640" y="607" />
            </Array>
          </mxGeometry>
        </mxCell>
        <mxCell id="lqmqEfBhIyxysH6olWQB-76" value="0..*" style="edgeLabel;resizable=0;html=1;align=left;verticalAlign=bottom;" connectable="0" vertex="1" parent="lqmqEfBhIyxysH6olWQB-75">
          <mxGeometry x="-1" relative="1" as="geometry" />
        </mxCell>
        <mxCell id="lqmqEfBhIyxysH6olWQB-78" value="possui" style="edgeLabel;html=1;align=center;verticalAlign=middle;resizable=0;points=[];" vertex="1" connectable="0" parent="lqmqEfBhIyxysH6olWQB-75">
          <mxGeometry x="-0.2213" y="1" relative="1" as="geometry">
            <mxPoint x="20" y="-234" as="offset" />
          </mxGeometry>
        </mxCell>
        <mxCell id="lqmqEfBhIyxysH6olWQB-79" value="" style="endArrow=none;html=1;edgeStyle=orthogonalEdgeStyle;rounded=0;exitX=1;exitY=0.5;exitDx=0;exitDy=0;entryX=1;entryY=0.5;entryDx=0;entryDy=0;" edge="1" parent="WIyWlLk6GJQsqaUBKTNV-1" source="lqmqEfBhIyxysH6olWQB-19" target="lqmqEfBhIyxysH6olWQB-66">
          <mxGeometry relative="1" as="geometry">
            <mxPoint x="2079.5" y="308" as="sourcePoint" />
            <mxPoint x="2181.5" y="724" as="targetPoint" />
            <Array as="points">
              <mxPoint x="2359.5" y="243" />
              <mxPoint x="2359.5" y="633" />
            </Array>
          </mxGeometry>
        </mxCell>
        <mxCell id="lqmqEfBhIyxysH6olWQB-80" value="0..*" style="edgeLabel;resizable=0;html=1;align=left;verticalAlign=bottom;" connectable="0" vertex="1" parent="lqmqEfBhIyxysH6olWQB-79">
          <mxGeometry x="-1" relative="1" as="geometry" />
        </mxCell>
        <mxCell id="lqmqEfBhIyxysH6olWQB-81" value="possui" style="edgeLabel;html=1;align=center;verticalAlign=middle;resizable=0;points=[];" vertex="1" connectable="0" parent="lqmqEfBhIyxysH6olWQB-79">
          <mxGeometry x="-0.2213" y="1" relative="1" as="geometry">
            <mxPoint x="-195" y="-12" as="offset" />
          </mxGeometry>
        </mxCell>
      </root>
    </mxGraphModel>
  </diagram>
</mxfile>
